<svg width="354" height="350" viewBox="0 0 354 350" fill="none" xmlns="http://www.w3.org/2000/svg">
<path d="M291.51 46.7985L271.566 14.6657L225.031 1.48308L72.1296 304.684L97.0591 329.402L136.115 350L291.51 46.7985Z" fill="url(#paint0_linear_1_27)" fill-opacity="0.5"/>
<path d="M0 350V345.056L34.9014 338.63V44.9858C34.9014 37.4058 31.7437 29.9906 25.4282 22.7401C19.1127 15.16 10.6366 9.22785 0 4.9435V0H77.7803L302.146 282.768H308.628V125.071C308.628 113.536 307.631 102.495 305.637 91.9491C303.642 81.403 300.318 71.6808 295.665 62.7825C291.344 53.5546 285.859 45.1506 279.211 37.5706C272.563 29.9906 264.586 23.564 255.279 18.291C246.304 12.6883 236 8.23916 224.366 4.9435V0H354V4.9435L316.107 11.37V350H285.194L48.862 53.3898H42.3803V202.684C42.3803 216.525 43.3775 229.543 45.3718 241.737C47.6986 253.602 51.1887 264.807 55.8423 275.353C60.4958 285.57 66.4789 295.127 73.7915 304.025C81.1042 312.594 89.9127 320.339 100.217 327.26C110.521 334.181 122.654 340.113 136.614 345.056V350H0Z" fill="url(#paint1_linear_1_27)"/>
<defs>
<linearGradient id="paint0_linear_1_27" x1="177" y1="0" x2="177" y2="350" gradientUnits="userSpaceOnUse">
<stop/>
<stop offset="1" stop-color="#666666"/>
</linearGradient>
<linearGradient id="paint1_linear_1_27" x1="173.51" y1="-167.42" x2="173.51" y2="498.305" gradientUnits="userSpaceOnUse">
<stop/>
<stop offset="1" stop-color="#A6A6A6"/>
</linearGradient>
</defs>
</svg>
